<svg xmlns="http://www.w3.org/2000/svg" viewBox="0 0 237.92 121.86"><path fill="#332f2c" d="M141.61 54.33h-12.06c-.31 0-.49 0-.56-.13a.53.53 0 01-.1-.34.56.56 0 01.1-.3c.07-.11.25-.16.56-.16s.58-.21.67-.64a14.18 14.18 0 00.13-2.43V5.04a14.18 14.18 0 00-.13-2.43c-.09-.42-.31-.63-.67-.63s-.49-.06-.56-.17a.56.56 0 01-.1-.3.52.52 0 01.1-.33c.07-.09.25-.13.56-.13h12.06zm10.66-53.15a2.84 2.84 0 01.6.07 21 21 0 018.65 2.93 22.48 22.48 0 016.43 5.89 26.21 26.21 0 014 8.06 32.06 32.06 0 011.36 9.36 35.24 35.24 0 01-1.23 9.39 26.73 26.73 0 01-3.63 8 21.81 21.81 0 01-6 5.93 21.34 21.34 0 01-8.4 3.2 8.74 8.74 0 01-1.59.2h-.6c-.54 0-.8-.07-.8-.2s0-.26.2-.37a3.87 3.87 0 01.7-.33c.28-.11.61-.22 1-.34a6 6 0 00.93-.36 7 7 0 003-2.5 12.6 12.6 0 001.67-3.6 20.23 20.23 0 00.73-4.09c.11-1.42.21-2.78.3-4.07.22-3.59.35-7.23.37-10.92s-.1-7.32-.37-10.92c-.09-1.2-.22-2.52-.4-4a18.71 18.71 0 00-1.01-4.11 12 12 0 00-2-3.62 7.63 7.63 0 00-3.58-2.38 9.92 9.92 0 01-1.67-.59c-.17-.09-.24-.16-.2-.21a.47.47 0 01.17-.29c.11-.12.41-.17.9-.17zM192.7 2.4v52h-12.06c-.31 0-.5 0-.57-.13a.6.6 0 01-.1-.34.66.66 0 01.1-.3c.07-.11.26-.16.57-.16s.58-.21.67-.64a15.34 15.34 0 00.13-2.43V5.04a15.34 15.34 0 00-.13-2.43c-.09-.42-.32-.63-.67-.63s-.5-.06-.57-.17a.66.66 0 01-.1-.3.59.59 0 01.1-.33c.07-.09.26-.13.57-.13h12.06zm13.72 17.18l.2.24a1 1 0 01.06.43v13.03a3.63 3.63 0 01-.1.8c-.06.31-.21.47-.43.47a.4.4 0 01-.27-.14 2.67 2.67 0 01-.4-1.06 7.64 7.64 0 00-2.3-3.95 9.19 9.19 0 00-4-2.25 2.86 2.86 0 01-.77-.16 1.39 1.39 0 01-.37-.23.35.35 0 010-.54 2.52 2.52 0 011.07-.46 9.11 9.11 0 003.8-2 8.41 8.41 0 002.39-3.47 1.28 1.28 0 01.54-.73.61.61 0 01.34-.16.69.69 0 00.24.16zm10.69 19.72a4.25 4.25 0 01.1.73V53.8c0 .35-.25.53-.74.53h-13.38a6.85 6.85 0 01-1.24-.1c-.37-.07-.56-.21-.56-.43 0-.05.06-.11.2-.2a1.14 1.14 0 01.46-.24l.94-.23a14.11 14.11 0 005.22-2 16.82 16.82 0 006.3-7.23 20 20 0 001.33-3.93 1.69 1.69 0 01.53-1.07.66.66 0 01.34-.13c.26.04.43.2.5.51zm-2.43-37.66V15.83a.45.45 0 01-.5.47.38.38 0 01-.26-.13 2 2 0 01-.27-.37 2.1 2.1 0 01-.2-.77 17.58 17.58 0 00-1.1-4.29 15.27 15.27 0 00-2.2-3.83 14.36 14.36 0 00-3.16-3 11.23 11.23 0 00-4-1.7 7 7 0 01-.9-.23 1.13 1.13 0 01-.43-.23c-.13-.09-.2-.16-.2-.2 0-.22.14-.37.43-.43a4.53 4.53 0 011-.1h11.12c.44.03.67.23.67.62zM237.92 1.51a.56.56 0 01-.1.3c-.07.11-.28.17-.63.17s-.58.21-.67.63a14.18 14.18 0 00-.13 2.43v45.29a14.18 14.18 0 00.13 2.43c.09.43.31.64.67.64s.56 0 .63.16a.56.56 0 01.1.3c0 .31-.25.47-.73.47h-12.86c-.31 0-.5 0-.57-.13a.59.59 0 01-.09-.34.64.64 0 01.09-.3c.07-.11.26-.16.57-.16s.58-.21.67-.64a14.18 14.18 0 00.13-2.43V5.04a14.18 14.18 0 00-.13-2.43c-.09-.42-.31-.63-.67-.63s-.5-.06-.57-.17a.64.64 0 01-.09-.3.58.58 0 01.09-.33c.07-.09.26-.13.57-.13h12.85c.49 0 .74.15.74.46zM44.63 66.92c1.06.13 2.06.3 3 .5s1.78.42 2.56.66l2 .64 1.67.63a4.06 4.06 0 001.4.3c.58 0 .86-.31.86-.93v-.54c0-.35 0-.56.14-.63a.52.52 0 01.33-.1 1 1 0 01.37.13c.15.09.23.29.23.6V86.3a.74.74 0 01-.23.63.76.76 0 01-.37.17.44.44 0 01-.33-.13 1 1 0 01-.14-.67v-.8a22.53 22.53 0 00-1.23-7.76 17.24 17.24 0 00-3.26-5.63A13.35 13.35 0 0047 68.72a13.14 13.14 0 00-5.33-1.14 8.67 8.67 0 00-5.69 1.64 9.67 9.67 0 00-2.9 4 17.5 17.5 0 00-1.17 5.18c-.14 1.84-.25 3.52-.34 5a153.93 153.93 0 000 22.11c.09 1.6.2 3.3.34 5.09a17.33 17.33 0 001.1 5 9.13 9.13 0 002.79 3.87 8.48 8.48 0 005.43 1.53c2.89 0 5-.71 6.2-2.13s1.86-3.51 1.86-6.26v-10.06a14.13 14.13 0 00-.13-2.46.65.65 0 00-.67-.6c-.31 0-.5-.06-.56-.17a.56.56 0 01-.1-.3.52.52 0 01.1-.33c.06-.09.25-.13.56-.13h12.92c.49 0 .74.15.74.46a.66.66 0 01-.1.3c-.07.11-.28.17-.64.17a.7.7 0 00-.7.6 11.58 11.58 0 00-.16 2.46v16.59c0 .48-.16.75-.47.79h-.07a.58.58 0 01-.2-.06 1.84 1.84 0 01-.53-.47c-.4-.53-1.4-.8-3-.8a13 13 0 00-3.76.5c-1.09.33-2.17.71-3.26 1.13a31.93 31.93 0 01-3.57 1.17 18.25 18.25 0 01-4.52.5 22.3 22.3 0 01-10.46-2.3 21.23 21.23 0 01-7.26-6.1 26.11 26.11 0 01-4.27-8.72 36.21 36.21 0 01-1.4-10.09 39.53 39.53 0 011.46-10.89 26.12 26.12 0 014.43-8.89 21.19 21.19 0 017.39-6 23 23 0 0110.36-2.2 24.55 24.55 0 013.21.21zM80.33 116.94a18.24 18.24 0 00.1 2.43c.06.42.28.63.63.63s.58.06.67.17a.48.48 0 01.13.3c0 .31-.27.46-.8.46H68.27c-.31 0-.5 0-.56-.13a.52.52 0 01-.1-.33.56.56 0 01.1-.3c.06-.11.25-.17.56-.17s.57-.21.64-.63a20.22 20.22 0 00.1-2.43V71.71a20.22 20.22 0 00-.1-2.43c-.07-.42-.28-.63-.64-.63s-.5 0-.56-.13a.53.53 0 01-.1-.34.43.43 0 01.1-.26c.06-.09.25-.14.56-.14h12.06zm0-24.78zm10-24.38a29.13 29.13 0 015.43.94 15.64 15.64 0 014.86 2.23 11.37 11.37 0 013.5 3.93 12.18 12.18 0 011.33 5.89 10.09 10.09 0 01-1.33 5.23 12.4 12.4 0 01-3.4 3.73 16 16 0 01-4.63 2.3 20.84 20.84 0 01-5 .93v.13a21.53 21.53 0 015.56 1.24 14.67 14.67 0 014.63 2.69 11.88 11.88 0 013.13 4.37 15.36 15.36 0 011.13 6.16v8.59a19 19 0 00.13 2.26 2.21 2.21 0 00.93 1.67 3.07 3.07 0 00.87.46.49.49 0 01.4.47.43.43 0 01-.13.27 1.73 1.73 0 01-.4.26 2.37 2.37 0 01-.74.2 7 7 0 01-.83.1h-.9c-3.37 0-6-.89-7.92-2.67a9.25 9.25 0 01-2.87-7.12v-5.13-4.86a15.14 15.14 0 00-.93-5.4 4.78 4.78 0 00-3.06-2.86c-.58-.14-.94-.31-1.07-.54a.61.61 0 01-.13-.33s0-.11.13-.2a1.14 1.14 0 01.33-.23 4.26 4.26 0 01.67-.24 5.37 5.37 0 003.33-3.39 23.3 23.3 0 001.06-8.13 23 23 0 00-1.09-8.09 5.79 5.79 0 00-3.23-3.56 3.21 3.21 0 01-1.14-.67.38.38 0 01-.13-.27.77.77 0 01.63-.33 7.64 7.64 0 01.84-.07zM127.35 68.98v52h-12c-.32 0-.5 0-.57-.13a.52.52 0 01-.1-.33.56.56 0 01.1-.3c.07-.11.25-.17.57-.17s.57-.21.66-.63a14.18 14.18 0 00.13-2.43V71.65a14.18 14.18 0 00-.13-2.43c-.09-.43-.31-.64-.66-.64s-.5-.05-.57-.16a.56.56 0 01-.1-.3.53.53 0 01.1-.34c.07-.09.25-.13.57-.13h12zm13.72 17.19a1.25 1.25 0 01.2.23 1 1 0 01.07.43v13.06a4.45 4.45 0 01-.1.8c-.07.31-.21.46-.43.46a.38.38 0 01-.27-.13 2.45 2.45 0 01-.4-1.07 7.7 7.7 0 00-2.27-4 9.12 9.12 0 00-4.06-2.23 2.7 2.7 0 01-.76-.17 1 1 0 01-.37-.23.34.34 0 010-.53 2.34 2.34 0 011.06-.47 8.83 8.83 0 003.8-2 8.4 8.4 0 002.4-3.46 1.28 1.28 0 01.53-.73.66.66 0 01.34-.14h.06a.86.86 0 00.2.18zm10.69 19.71a3.52 3.52 0 01.1.73v13.79c0 .36-.24.53-.73.53h-13.39a6.81 6.81 0 01-1.23-.1c-.38-.06-.57-.21-.57-.43 0 0 .07-.11.2-.2a1.08 1.08 0 01.47-.23q.33-.1.93-.24a14 14 0 005.23-2 16.48 16.48 0 003.8-3.3 16.87 16.87 0 002.49-3.93 19.67 19.67 0 001.34-3.93 1.66 1.66 0 01.53-1.06.61.61 0 01.33-.13c.27.02.43.19.5.5zm-2.43-37.63v14.19a.45.45 0 01-.5.46.38.38 0 01-.27-.13 1.69 1.69 0 01-.27-.37 2.51 2.51 0 01-.2-.76 17.08 17.08 0 00-1.09-4.3 15.45 15.45 0 00-2.2-3.83 14.36 14.36 0 00-3.17-3 11.09 11.09 0 00-4-1.7c-.4-.09-.7-.17-.9-.23a1.06 1.06 0 01-.43-.24c-.14-.09-.2-.15-.2-.2 0-.22.14-.36.43-.43a4.44 4.44 0 011-.1h11.12c.46.04.68.24.68.64zM179.18 67.4a.67.67 0 01-.14.27 2.06 2.06 0 01-1.19.67 6.77 6.77 0 00-3.23 2.76 14.28 14.28 0 00-1.64 4 23.23 23.23 0 00-.63 4.39c-.07 1.49-.14 2.81-.23 4a151.9 151.9 0 000 22.17c.13 1.65.29 3.25.46 4.8a20.4 20.4 0 00.94 4.3 11.54 11.54 0 001.83 3.46 6.93 6.93 0 003.09 2.23 7.75 7.75 0 011.6.8c.14.13.2.22.2.27-.09.26-.42.35-1 .26h-.33a3.49 3.49 0 01-.73-.06 21.47 21.47 0 01-8.66-3.33 23.23 23.23 0 01-6.23-6.23 27.61 27.61 0 01-3.73-8.23 34.9 34.9 0 01-1.23-9.19 39.92 39.92 0 011.17-9.82 27.24 27.24 0 013.53-8.29 21.65 21.65 0 015.89-6.13 20.7 20.7 0 018.26-3.38 3.89 3.89 0 01.93-.14c.61 0 .97.14 1.07.42zm6.86-.4a1.09 1.09 0 01.26 0 1.24 1.24 0 00.27 0c1.29.22 2.48.48 3.56.77s2 .56 2.7.83c.53.22 1.08.42 1.63.6a4.67 4.67 0 001.37.27h.2l.4-.14a1.16 1.16 0 01.33-.06h.27a.31.31 0 01.13 0 .31.31 0 00.13 0 1.12 1.12 0 01.34.23 3.31 3.31 0 01.06.9v11.46c0 .44 0 .87-.06 1.27s-.2.6-.47.6c-.09 0-.18-.07-.27-.2a1.36 1.36 0 01-.23-.47 7.16 7.16 0 01-.17-1 21.44 21.44 0 00-1.33-5 17.15 17.15 0 00-2.26-4 15.27 15.27 0 00-3-3 13.59 13.59 0 00-3.53-1.9 3.26 3.26 0 01-1.4-.6c-.13-.13-.18-.24-.13-.33a.41.41 0 01.33-.27 2.74 2.74 0 01.6-.07zm14.28 37.54a4.93 4.93 0 01.1 1v13c0 .66-.15 1.06-.46 1.19h-.2a.53.53 0 01-.2-.06.86.86 0 01-.4-.4 1.09 1.09 0 00-.8-.27 4.31 4.31 0 00-1.43.3l-1.77.63a41.54 41.54 0 01-7.59 1.67 2.31 2.31 0 01-.5.07h-.37c-.57 0-.88-.14-.93-.4 0-.05.07-.11.2-.2a1.45 1.45 0 01.43-.27q.3-.14.84-.33a15.26 15.26 0 007.82-5.26 19.66 19.66 0 004-9.6 3 3 0 01.47-1.39.38.38 0 01.33-.2c.24 0 .39.16.45.5zM220.06 68.12a.56.56 0 01-.1.3c-.06.11-.27.16-.63.16s-.58.21-.67.64a14.18 14.18 0 00-.13 2.43v45.29a14.18 14.18 0 00.13 2.43c.09.42.31.63.67.63s.57.06.63.17a.56.56 0 01.1.3c0 .31-.24.46-.73.46h-12.85c-.32 0-.5 0-.57-.13a.52.52 0 01-.1-.33.56.56 0 01.1-.3c.07-.11.25-.17.57-.17s.57-.21.66-.63a14.18 14.18 0 00.13-2.43V71.65a14.18 14.18 0 00-.13-2.43c-.09-.43-.31-.64-.66-.64s-.5-.05-.57-.16a.56.56 0 01-.1-.3.53.53 0 01.1-.34c.07-.09.25-.13.57-.13h12.85c.49 0 .73.16.73.47zM20.85.78a.82.82 0 01-.14.27 2.15 2.15 0 01-1.2.66 6.89 6.89 0 00-3.23 2.77 14.62 14.62 0 00-1.63 4 23.34 23.34 0 00-.63 4.4c-.07 1.49-.15 2.81-.23 4a152 152 0 000 22.18c.13 1.64.28 3.24.46 4.8a21.1 21.1 0 00.93 4.24 11.67 11.67 0 001.84 3.46 6.89 6.89 0 003.09 2.24 7.23 7.23 0 011.6.8c.14.13.2.22.2.26-.09.27-.42.36-1 .27h-.33a2.8 2.8 0 01-.73-.07 21.14 21.14 0 01-8.67-3.33 23.08 23.08 0 01-6.23-6.23 27.44 27.44 0 01-3.73-8.22 34.9 34.9 0 01-1.23-9.19 40.49 40.49 0 011.19-9.83 27.85 27.85 0 013.53-8.29 22 22 0 015.9-6.13A20.78 20.78 0 0118.87.51a3.76 3.76 0 01.91-.11c.62 0 .98.11 1.07.38zm6.86-.4h.26a.84.84 0 00.27 0c1.29.22 2.47.47 3.56.76a28.16 28.16 0 012.7.84c.53.22 1.08.42 1.63.59a4.67 4.67 0 001.37.27h.2l.4-.13a.93.93 0 01.33-.07h.4a.22.22 0 00.13 0 1 1 0 01.34.23 3.31 3.31 0 01.06.9V15.4q0 .66-.06 1.26c-.05.4-.2.6-.47.6-.09 0-.18-.07-.27-.2a1.13 1.13 0 01-.23-.47 5.77 5.77 0 01-.17-1 21.44 21.44 0 00-1.33-5 17.3 17.3 0 00-2.26-4 15.33 15.33 0 00-3-3 13.9 13.9 0 00-3.53-1.9 3.16 3.16 0 01-1.4-.59c-.13-.14-.18-.25-.13-.34a.4.4 0 01.33-.26 2.25 2.25 0 01.6-.07zm14.28 37.53a5 5 0 01.1 1v13c0 .67-.15 1.07-.46 1.2h-.2a.4.4 0 01-.2-.07.82.82 0 01-.4-.4 1.13 1.13 0 00-.8-.26 4.31 4.31 0 00-1.43.3l-1.77.63a41.54 41.54 0 01-7.59 1.67 2.34 2.34 0 01-.5.06h-.37c-.58 0-.89-.13-.93-.4 0 0 .07-.11.2-.2a1.46 1.46 0 01.43-.26l.83-.34a15.19 15.19 0 007.83-5.26 19.76 19.76 0 004-9.59 3 3 0 01.47-1.4.39.39 0 01.33-.2c.25.01.4.19.46.52zM56.18 41.48a.72.72 0 01.27.26 1.81 1.81 0 01.07 1.33 20.88 20.88 0 00-.34 3.27 12.44 12.44 0 00.21 2.93 7.09 7.09 0 00.79 2.33 3.6 3.6 0 001.67 1.46 4.4 4.4 0 01.93.6.38.38 0 01.13.27c0 .22-.17.34-.5.37H48.12c-.38 0-.59-.15-.63-.37s0-.37.3-.43l.83-.24a4.82 4.82 0 001.4-.9 8.61 8.61 0 001.53-1.86 27.26 27.26 0 001.7-3.16q.93-1.94 1.93-4.73c.26-.8.55-1.2.86-1.2a.24.24 0 01.14.07zm18.68-41a1.76 1.76 0 00.24.3l16.92 49c.57 1.55.94 2.54 1.09 3s.3.64.44.64c.35 0 .57 0 .66.16a.51.51 0 01.14.3c0 .31-.27.47-.8.47H80.06c-.31 0-.5 0-.57-.13a.53.53 0 01-.1-.34.56.56 0 01.1-.3c.07-.11.26-.16.57-.16s.3-.21.36-.64a8.46 8.46 0 00-.7-3l-5-14.92c-.09-.22-.69-1.82-.73-2l-7.33-23-.6-2.13L68.18.78a.62.62 0 01.67-.47h5.59c.24 0 .39.09.45.17zM71.18 33.65a3.34 3.34 0 01-1.1 2.57 3.73 3.73 0 01-2.61 1 3.67 3.67 0 01-1.42-.28 3.55 3.55 0 01-1.19-.75 3.89 3.89 0 01-.83-1.13 3.15 3.15 0 01-.32-1.42 3.23 3.23 0 011.15-2.56 3.92 3.92 0 015.22 0 3.33 3.33 0 011.1 2.57zM87.18 12.12a6.93 6.93 0 003.55-.83 4.07 4.07 0 001.78-2.89 3.91 3.91 0 000-1.07c-.07-.41-.19-.63-.37-.67l-.55.39a3.49 3.49 0 01-3.46-.66 2.83 2.83 0 01-1-2.25 4.45 4.45 0 011-3 3.66 3.66 0 012.94-1.16 3.73 3.73 0 013 1.44 5.82 5.82 0 011.11 3.81q0 8-8 8z"/></svg>